<?xml version="1.0" encoding="utf-8"?>
<!-- Generator: Adobe Illustrator 19.1.0, SVG Export Plug-In . SVG Version: 6.00 Build 0)  -->
<svg version="1.1" id="Layer_1" xmlns="http://www.w3.org/2000/svg" xmlns:xlink="http://www.w3.org/1999/xlink" x="0px" y="0px"
	 viewBox="0 0 2560 2578" style="enable-background:new 0 0 2560 2578;" xml:space="preserve">
<style type="text/css">
	.st0{fill-rule:evenodd;clip-rule:evenodd;fill:none;stroke:#f2f2f2;stroke-width:2;stroke-miterlimit:10;}
</style>
<path class="st0" d="M-51.7,152.2c70.3,10.5,129.8,14,187.5,11.1l61.6-1.9c37.8-1.9,80.2-9.1,119.6-20.4c18.7-5.3,38.4-14.4,59.3-24
	c15-6.9,30.6-14.1,46.2-20l3.6-1.2c150.1-59.6,298.3-46.6,455.1-32.7c80.4,7.1,163.5,14.4,247.4,11.2c176.4-6.8,281.8,4.1,358.7,12
	c60,6.2,107.4,11,161.9,5.2c20.5-2.2,49-7.6,79.1-13.2c35.7-6.7,72.6-13.7,97.6-15.5c0,0,163.8-22.8,342.3,48.4
	c120.9,48.1,300.9,38,371.2,0c18-9.7,33.4-20.6,48.5-31.3 M1959.2,84.9c-58.4-4.2-146.8,6.4-196.5,16.7c-21.1,4.4-57,13.6-60.9,26.3
	c-0.6,2-0.7,5.1,2.1,8.2c8.8,9.8,41.9,16.7,74,23.3c17.7,3.7,34.4,7.2,42.1,10.4c22,9.2,41.7,14.6,63.6,17.3c0.1,0,0.2,0,0.3,0
	c0,0,0,0,0,0c0,0,0,0,0,0l8.2,0l12.3,0c23.2-1.1,52.8,2.9,78.3-10.1C2002,167.2,2172.3,100.3,1959.2,84.9z M-51.7,226.7
	C41.7,244.4,144.4,259,249.4,259c28.8,0,57.8-1.1,86.7-3.5c53.3-4.5,105-13.9,159.8-23.9c23.5-4.3,47.9-8.7,72.1-12.7l93.8-15.6
	c193.3-32.3,392.9-65.7,585.3-65.7c6.6,0,13.3,0,19.9,0.1c83.4,2.3,163.7,11.4,238.5,27.1l44.6,9.5
	c122.2,26.2,288.2,64.6,402.1,70.9c91.9,5,204.1-19.3,204.1-19.3c57.5-16.4,225.3-12.3,327.5-1.1c32.2,3.5,69.1,3.1,108.3-0.8
	 M2589.9,191.8c-21.8,1-158.1,0.8-193.6-2.6c-202.3-19.5-249.9-15.6-342.5,12.8c-83.1,25.5-221.7,6.9-316.6-25.7
	c-20-6.9-82.1-19.7-82.1-19.7c-120-29.1-245.9-47.5-361.3-56.7c-45.6-3.6-92.1-4.3-142.1-1.9c-73.1,3.4-144.6,17-220.3,31.3
	l-17.6,3.3c-249.3,47-433.7,72.5-563.6,77.8l-22.2,0.9c-125.2,5.2-254.1,10.5-379.7-4.5 M1983.1,115.1c-9.8-4.9-22.8-7.2-31.3-8.2
	c-24.7-3-100.9,12.6-110.6,16.4c-2,0.8-5,1.4-8.3,2c-8.1,1.6-15.8,3.2-17.4,8.4c-0.8,2.5,0.1,5.3,2.7,8.3
	c11.3,12.9,44.5,17.5,51,18.3c9.1,1.1,19,1.3,28.5,1.5c7.7,0.2,15.6,0.3,23.2,1c0,0,3.5,0.3,5,0c1.2-0.3,2.4-0.3,3.7-0.3
	c0.5,0,1.1,0,1.7,0h3c11.1-0.1,35.6-2.3,48.9-13.7C1989.2,143.3,2001.5,127.5,1983.1,115.1z M2609.8,1790.6
	c-30.4-2.7-63.2-6-98.8-10.1c-61-7.1-125.4,20.4-188.8,22.1c-16.3,0.4-32.3,0.7-48.1,0.7c-78.8,0-152.1-5.6-221.8-16.8
	c0,0-102.3-18.4-348.1,28.3c-17,3.2-34.7,1.2-52,1.2c-69.2,0-137.8-6-199.9-11.5c-137.4-12.1-250.7-17.7-356.4-17.7
	c0,0-8.7,0-12.6,0c-71.6,0-139.6,0.4-209.9,8.6c-97,11.3-204.9,34.9-312.2,68.1l-26.1,8.2c-36.1,11.4-70.1,22.2-105.9,29.8
	c-60.1,12.7-125.4,20.4-188.8,22.1c-16.3,0.4-32.3,0.7-48.1,0.7c-78.8,0-152.1-5.6-221.8-16.8 M1608.9,457.6
	c31.1-16.3,71.1-47.1,81.3-80.5c3.9-12.8,3.1-24.9-2.4-36c-22.5-45.2-113.6-65.8-131.6-69.5c-17.1-3.5-35.5-5.8-53.3-8.1
	c-12.5-1.6-24.4-3.1-35.8-5c-54.9-9-105.7-16-170.6-10.1c-13.4,1.2-47.8,5.3-78.8,16.6c-24.6,8.9-46.5,25-67.7,40.6
	c-13.4,9.8-27.3,20-41.6,28.2c-15.2,8.7-30.1,11.9-45.9,15.4c-8.7,1.9-17.6,3.8-27,6.8c-17.5,5.5-28.2,13.1-31.7,22.5
	c-2.4,6.3-1.4,13.3,2.7,20.7c10.3,18.4,32.3,31.4,52.5,41.8c38.5,19.7,81.6,30.5,122.5,39.9c31.4,7.2,73.8,9.3,111.3,11.1l4.8,0.2
	c40.8,2,87.3,3.2,142.3,3.8c0,0,0.1,0,0.2,0C1499.6,492.1,1553.4,486.6,1608.9,457.6 M2609.6,1855c-34.3-1.1-69.6-3.4-105.8-7.1
	c-94-9.5-185.3,33.2-274.8,29.2c-74.1-3.3-142.8-9.7-207.8-22.6c-3.9-0.8-11.8-2.5-15.7-3.2c-63.4-11.3-129.3-7.9-193.1-6.4
	c-55.8,1.4-113.5,2.8-168.1-3.5c-10-1.1-20-2.8-29.8-4.4c-14.4-2.3-29.3-4.8-44.4-5.7l-4.2-0.2c-99.3-5.9-202-12-302.1-11.5
	l-89.6,0.6c0,0-108.6,0.7-108.7,0.7l-6.2,0.2c-52.8,1.7-102.6,3.4-153.9,9.2c-99.5,11.2-201.3,36.4-299.8,60.7
	c-141.8,35-288.4,71.2-427.3,65c-74.1-3.3-142.6-10.7-207.8-22.6 M1290.6,383.2c27.6,3.2,119,1,128.6-7.2c2.1-1.7,3.1-3.7,3-5.7
	c-0.1-2.3-1.5-4.3-4.3-6.3c-18-12.8-51.5-17.4-74.7-17.5l-6.6,0.2l-4.4,0.1c-0.1,0-0.2,0-0.3,0c-11.8,1.4-22.4,3.7-34.2,7.5
	c-12,3.9-23.4,7.8-30.6,13.7c-1.7,1.4-3.5,3.1-3.4,5.5c0.1,2.3,2,3.7,3.6,4.7c4.9,3,12.7,3.9,20.3,4.7L1290.6,383.2z M-29.3,473.5
	c239.2-62.7,481.5-29.1,669.9,8.8c61.3,12.3,123.1,28.6,183.8,48.5c35.5,11.6,72.8,23.4,108.9,34.8c37.7,11.9,73.3,23.2,106.6,34.2
	c91.8,30.2,192.1,52.4,290.1,64.2c20.1,2.4,40.9,3.7,61.1,5c14.3,0.9,29.1,1.8,43.6,3.1c58.2,5.3,112.8,4.9,162.3-1
	c142.4-17.1,272.7-75.8,408.5-140.6c0,0,207.3-120.3,303.5-105.9c73.7,11,161,5.5,197.9,8.4c36.6,2.9,77.2,1.3,120.4-3.1
	 M-29.3,564.7C62.5,543.5,148.5,533,237,532c49.2-0.6,100,3,133.8,5.8c40.4,3.3,94,8.5,150.1,19.6c94,18.7,188.5,42.6,279.9,65.6
	c115,29.1,234,59.1,350,78.1c222.4,36.4,433.6,24,627.6-36.9c78.6-24.7,153-56.2,227.1-94.7c80.6-41.8,236.9-115.1,346.7-99.5
	c48.4,6.9,105.5,21,151.7,19.2c29.8-1.1,73.8-5.8,125.6-11.9 M1411.5,471.9c59.5-5.3,103.6-13.9,138.9-27.1
	c29.5-11.1,75.5-44.8,81.2-76.9c2.4-13.1-1.9-24.8-12.6-34.6c-11.6-10.7-29.6-15.7-36.8-17.4l-37.2-8.9
	c-46.6-11.2-90.6-21.8-133.2-28c-88-12.8-153.2-0.3-225,43.1c-12.4,7.5-27.1,16.6-42.5,27.2l-3.9,2.7
	c-18.6,12.8-44.1,30.3-46.2,50.2c-0.8,7.9,2.1,15.4,8.6,22.4c27.7,29.7,105.5,40.3,131.1,43.8c31.5,4.3,65.4,5.7,98.2,5.7
	C1360.3,474.1,1387.5,473.1,1411.5,471.9C1411.4,471.9,1411.5,471.9,1411.5,471.9 M2609.5,292.6c-31.6,2.6-66.7,3.8-105.9,3.3
	c-60.1-0.8-169.8-48-274.8-27.5c-143.8,28.1-166.6,42.2-223.3,48.3c-134.6,14.5-265.1-45.3-390.7-75.6
	c-44.1-10.7-89.6-21.7-134.8-31.4c-90.7-19.5-175.2-18.1-291.6,4.8c-50,9.8-100.8,22.8-149.9,35.3c-37.4,9.6-76.2,19.4-114.2,27.8
	c-102.4,22.6-203.3,37.1-299.9,43.1c-76.4,4.7-151.1-0.1-230.2-5.1l-51.9-3.2l-49.2-2.8c-69.6-4-141.5-8.1-212.4-12.8l-17-1.1
	c-30.7-1.9-62-3.9-93-8.4 M1811.9,367.8c1.5-6.8-3.3-14.5-12.8-26.5c-32.8-41.2-236-93.2-266-98.6c-39.7-7.2-171.8-18.9-247.7-20.5
	c-83.2,4.1-157.8,25.9-257.5,75.4c-57.7,28.6-120.1,40.2-170.1,49.5c-25.5,4.7-47.5,8.8-62.8,14.2c-1.4,0.5-5.8,2-5.8,5.8
	c0,6.5,13.2,11.6,51.4,25.4c29.7,10.7,70.4,25.4,109.9,44.8c109.6,53.8,184.6,84.4,222.9,90.8c57.6,9.7,118,12.2,147.1,13.4
	l12.7,0.6c14.4,0.9,29.1,1.3,44.1,1.3c18.6,0,37.7-0.7,56.9-2.1c0,0,0,0,0,0c31.4-2.8,77.7-8.5,117.2-25.6
	c36.9-16,79.4-44.9,116.8-70.3c13.3-9.1,25.9-17.6,37-24.7c14.1-9,33.3-16,51.8-22.8c11.2-4.1,21.7-7.9,31.2-12.2
	C1802.7,379.3,1810.3,374.7,1811.9,367.8 M1240.6,440.5c53.7,5.5,103.9,8.5,153.4,9.1c28.3,0.4,163.1-16.4,188.7-44
	c11.6-12.6,11.6-26.3-0.1-38.6c-18.5-19.5-48.4-35.1-70.3-44.7c-36.2-15.9-78.4-25.7-122.1-28.2c-67.8-3.9-115,6.8-180.2,40.9
	c-26.4,13.8-59.3,31.1-76,54.3c-4.1,5.7-5.6,11-4.5,15.9c1.3,5.8,6,10.7,14.9,15.3c24.5,12.8,59.1,16.3,89.6,19.3L1240.6,440.5
	 M1383,422.5l1.5,0.3c0.1,0,0.2,0,0.4,0c0.2,0,0.4,0,0.6-0.1c1.9-0.5,3.9-0.6,5.9-0.6c0.9,0,1.7,0,2.6,0h4.7
	c29.8-0.2,90.2-18.7,94.8-51.9c0.6-4.5-1-10.4-4.1-15.1c-11.9-17.8-44.8-24.8-63.4-27.4l-13.4-2c-36-5.4-80.8-12.1-114,2.6
	c-6.4,2.8-13.3,7.9-20.5,13.2c-7.8,5.7-15.8,11.6-23.8,15.2c-3.1,1.4-7.9,2.5-13,3.7c-11.4,2.6-23.3,5.3-25.8,13.1
	c-1.3,3.8,0,8.1,3.6,12.9c17.2,22.4,68.5,30.5,78.7,31.9c14.2,2,29.5,2.3,44.3,2.7c11.9,0.3,24.3,0.6,36.2,1.7c0.1,0,0.2,0,0.3,0
	c0.1,0,0.2,0,0.3,0l1.5-0.4L1383,422.5z M2609.9,1703.6c-38.7-3.4-75.9-7.4-110.2-12.3c-178.9-25.3-371.6-3.2-494.2,13.2
	c-244.7,32.7-488.7-31.1-716.2-70.4l-48.1-8.8c-101.1-19.1-181-34.2-331.2,13.4c-77.8,24.6-170.4,56.3-266.9,104.7l-33.8,17.4
	c-22.9,12-42.6,22.4-64.3,30.4c-33.2,12.4-88.5,25.8-128.4,31c-138.6,18.3-291.6-8.3-445.8-77 M2624,1736.2
	c-40.7,0.8-78,2.8-108.9,6.6c-37.5,4.6-84-9.2-118.9-16.8c-2.8-0.6-6.8-1-10.3-1.4l-4-0.5l-17.7-2.3c-23.5-3-47.7-6.2-71.7-7.5
	c-99.6-5.7-188-0.7-273.3,15.7l-13.5,2.2c-15.3,2-31.4,6.4-47.2,9.1l-20.6,3.5c-147.2,24-293.3,5.5-434.7-12.3
	c-36.9-4.7-75.1-9.5-112.2-13.4c-25.8-2.7-54.6-7.8-82.5-12.6c-24.4-4.3-49.7-8.7-73.2-11.6c-32.8-4.1-71.8-8.5-112-10.7
	c-117.1-6.4-225.4,20.4-351.9,62.5l-70.7,23.7c-118.5,39.9-241,81.1-352.9,109.3c-2.7,0.7-6.7,1.3-10.3,1.8l-4,0.6l-17.7,2.9
	c-23.4,3.8-47.5,7.8-71.4,10c-99.4,9-187.8,7-273.7-6.4 M2609.1,250.2c-35.4,5.5-68.6,6.3-100.6,0.6c-80.3-14.3-266.4-12-326.6,4.6
	c-61.7,16.9-131.5,34.7-176.5,37.9c-75.5,5.4-155.1-16.8-233.4-40.4l-56.9-17.8c-24.7-7.9-48-15.4-73.4-22.6
	c-97.8-27.8-204.5-42.2-300.4-40.5c-112.1,2-222,22.5-338.2,44.1l-87,15.9c-181.1,31.8-368.4,64.7-558.3,63.9
	c-33.3-0.1-67.4-1.8-100.4-3.4l-50.5-2.3c-79.1-3-158.3-14.6-236.2-34.5 M2609.8,1888.5c-40.9-1.4-79,0-107.6,4.9
	c-120.6,20.7-269.8,28.5-420.1,2.7c0,0-31.1-4.4-76.6-0.7c-33.7,2.7-68.3,7.2-101.9,13.8c-19.8,3.9-40.3,7.9-60.4,10.5
	c-153.3,20.3-300.2,8.3-455.8-4.5c-58.8-4.8-119.6-9.8-180.5-12.9c-16.5-0.8-33.3-1.3-49.6-1.7c-16.6-0.5-33.8-0.9-51.3-1.8
	l-32.5-0.9l-22.4-0.5c-132.3-4-241.1,4.5-363.6,28.3c-35.5,6.9-69.7,15.3-98.4,22.5c-33.2,8.4-65.8,18.8-97.4,28.9
	c-44.1,14.1-85.8,27.4-128.5,35.6c-116.2,22-242.1,20.4-392.4-5.5 M2626.2,1637c-72.7-14.2-122.3-27-122.3-27
	c-44.5-7-96.7-8.3-151.7,4.6c-155.4,36.4-345.3,36.4-345.3,36.4c-62.6-3-127.4-15.9-189.2-15.8c-91,0.2-185.1,0.5-276.4-9.4
	c-38.9-4.2-78-7.4-115.8-10.5c-57.1-4.6-116.1-9.4-177.8-18c-110.9-15.3-228.2-25-335.3,7.5c-16.7,5.1-32.3,9.3-47.4,13.3
	c-33.8,9-65.6,17.6-102,34.2l-26.1,12c-128.6,59-261.6,120-400.9,119.2c-60.5-0.3-130.6-3.3-196.8-33.9l-38.5-18.2
	c-43.4-20.7-87.8-41.8-130-56 M2659,1538c-16.9-2.3-33.3-3.9-49.2-5c-163-10.7-272,39.5-272,39.5c-122.6,38.5-249.2,45.8-333,41.6
	c-85.8-4.2-214.4-23.2-321.7-43c-101-18.6-155.1-12.1-217.8-4.5c-61.3,7.4-130.7,15.9-261,4.4c-233.4-20.5-335.5-5.6-475,69.2
	c-130.4,70-272.7,105-400.6,98.6c-107.9-5.4-233.7-36.8-358.1-89.2 M1897.1,1543.1c-1.1,0.5-4.1,2.7-3.9,6c0.2,3.3,3.6,5.2,6.1,6.4
	c23.1,10.8,63.5,14.5,94.8,14.5c3.4,0,6.7,0,9.9-0.1l1.5-0.1h-1.2l1.5,0.1c3.2,0.1,6.5,0.1,9.9,0.1c31.4,0,71.7-3.7,94.8-14.5
	c2.5-1.2,5.9-3.1,6.1-6.4c0.2-3.3-2.9-5.3-3.9-6c-7.8-5.1-60.5-9.2-108.4-11.2C1949.2,1530.3,1922,1532.3,1897.1,1543.1z
	 M2005.5,1512.9c-38.8,3-83,5.8-114.3,8.8l-8.7,0.8c-26,2.4-65.4,6-84.3,14.8c-4.3,2-9.2,4.8-9,9.2c0.2,5.5,8,8.5,17.8,12.3l5.7,2.2
	c38.1,15.7,77.7,19,115.9,22.2l12.9,1.1c0.1,0,0.2,0,0.2,0c14-0.2,26.9,0.2,39.5,0.7c8.2,0.3,16.3,0.5,24.4,0.6h-1.2
	c8.1-0.1,16.1-0.3,24.4-0.6c12.5-0.4,25.5-0.9,39.5-0.7c0.1,0,0.2,0,0.2,0l12.9-1.1c38.3-3.2,77.8-6.5,115.9-22.2l5.7-2.2
	c9.9-3.8,17.7-6.8,17.8-12.3c0.1-4.4-4.8-7.2-9-9.2c-19-8.8-58.3-12.4-84.3-14.8l-8.7-0.8
	C2118.6,1521.7,2044.3,1509.8,2005.5,1512.9z M779.4,1565.8c-3.1-7.9-20.2-12-62-21.5c-42.9-9.7-107.8-24.3-182.3-52.8
	c-31.3-12-64-19.1-99.9-21.8c-48.1-3.6-104-0.9-153.2,7.5c-15.7,2.7-32,5-49.2,7.5c-27.4,3.9-55.8,8-85.1,13.9
	c-52.6,10.5-143.1,40.8-170.4,72.4c-3.6,4.2-5.1,8.6-4.4,12.9c1.9,11.3,18,20.3,35.2,29.8c10.5,5.8,21.3,11.8,28.7,18.3
	c35.9,31.4,201.5,70.7,249.8,71.4c56.3,0.8,116.5-7.4,164.9-13.9l40.4-5.2c46.4-5.2,119.3-26.4,177.4-51.6l6.7-2.9
	c32.2-13.9,92.2-39.7,102.9-57.4C780.4,1569.7,780,1567.3,779.4,1565.8 M454.9,1585.7c1.9-1.2,4.7-2.9,4.5-5.8
	c-0.2-2.5-2.6-3.8-5.1-4.8c-6.8-2.7-17.6-3.2-28.1-3.7l-3.9-0.2c-37.7-2-166.4,3.8-178.9,12c-1,0.7-4.1,2.7-3.9,6
	c0.2,3.3,3.6,5.2,6.1,6.4c23.1,10.8,63.5,14.5,94.8,14.5c3.4,0,6.7,0,9.8-0.1l9.1-0.4c0,0,6.3-0.3,6.4-0.3c16.4-1.8,31-4.6,47.3-8.8
	C429.6,1596.1,445.3,1591.7,454.9,1585.7 M2609.8,1505.7c-63.2,2.7-107.6,0.9-107.6,0.9s-140.6,0-242.5-18.2s-130.7-28.6-182.5-24.3
	c-9.1,0.8-90.2,4.5-100.5,6.4c-68.6,12.7-172.3,32-282,59c-44.2,5-91.1,6-140.4,6c-15.3,0-30.8-0.1-46.6-0.2
	c-15.8-0.1-31.8-0.2-48-0.2c-28.7,0-57.7,0.3-86.9,1.5c-45.6,1.8-92.1,2.6-138.2,2.6c-191.1,0-374.1-12.9-443.3-17.8l-23.3-1.6
	c-51.8-2.8-136.3-27.3-210.9-48.8c-56.4-16.3-109.7-31.7-140-35.1c-27.3-3.1-54.6-4.6-81.9-4.6c-114.5,0-231.3,27.2-364.5,84.4
	 M546,1614.7c15.2-8.1,21.7-20.6,17.5-33.3c-10.3-30.8-51.3-50.8-121.8-59.2c-57.4-6.9-285.7,17.3-307.6,41.1
	c-4.9,5.4-6.9,11-5.9,16.8c2.7,15.4,26.5,27.3,43.9,36l6.6,3.3c46.6,24.2,88.1,37.8,123.4,40.5c0,0,0.1,0,0.1,0
	c9,0.4,17,0.7,24.4,0.7c10.3,0,19.5-0.4,28.6-1.3c35.9-3.5,80.5-14.8,119.7-24.7l25.1-6.3l11.6-2.7
	C524.2,1622.7,536.2,1620,546,1614.7 M646,1585.7c-9.3-26.9-66.8-52.3-113.5-68.9c-27.6-9.8-55.4-16.1-78.5-17.7
	c-37.6-2.6-76.8,0.2-114.8,2.9l-21.8,1.5c-64.2,4.2-111.3,8.4-177,27.4c-29.2,8.4-68.1,23.1-87.8,45.3c-6.1,6.8-8.6,13.6-7.3,19.6
	c1.2,5.9,6,10.7,14.2,14.2c9.8,4.1,21.7,5.8,34.4,7.5c9.7,1.4,19.8,2.7,28.7,5.3c16.6,4.8,31.9,13.6,46.7,22.1l19.2,10.6
	c28.7,14.8,59.4,23.1,88.6,24.1l0.1,0c10.3,0.7,20.2,1,29.8,1c48.1,0,89-7.6,135.2-16.1c22.2-4.1,190.4-40.1,202.1-60.4
	C647.7,1598.3,648.2,1592.1,646,1585.7 M2673.2,1326.7c-20.3,3.7-39.7,15.9-63.4,27.5c-27.1,13.3-59.8,25.7-106,23.9
	c-55.4-2.2-76-22.5-101.1-30.5c-110.5-35.2-397.2,13.9-397.2,13.9c-247.4,60-493.8,86.3-816.2,87.5c-117,0.4-230.8-10.5-351.2-22
	l-71.2-6.7c-53.7-5-118.2-14.2-181.7-25.9c-33.4-6.2-66.3-13.4-98.2-20.4c-45.5-10-88.4-19.4-132.1-25.9L341,1346
	c-43.5-6.5-88.4-13.3-131.4-11.3c-83.3,3.9-162.3,38.1-238.8,74.6 M2598.6,1295.4c-34.5,15.1-63,29.7-94.7,27.7
	c-68.1-4.1-154.9-33.5-183.4-36.6c-44.9-4.9-96.5-5.5-156.9,5.2c-40.3,7.1-96.5,21-158,44.4c-105.4,40.1-219.8,55.9-335.2,64.7
	c-71,5.4-130.7,8.6-191.1,7c-4.2-0.1-16.3,0.9-34.5,2.3c-53,4.3-163.2,13.2-275,10.3c-251-6.6-543.7-42.4-599.8-49.5
	c-18.8-2.4-70.8-14-125.8-26.4c-67.5-15.1-144-32.3-173.8-35.5c-44.9-4.9-96.2-3.2-156.9,5.2c-49.3,6.8-96.7,20.9-142.7,36.8
	 M2648.8,1439.7c-10,1.6-20.3,3.3-30.9,5c-28.2,4.6-114.1-5.7-114.1-5.7c-59-8.2-126.2-25.7-214.6-37.9
	c-175.9-24.3-283.8,8.1-283.8,8.1c-19.1,5.5-38.3,11.2-57.2,16.8c-33.9,10.1-69,20.6-102.8,29.4c-51.9,13.5-319.6,50.8-530.5,57.1
	c-119,3.5-207-10.1-284.7-22.2c-39.4-6.1-76.6-11.9-112.2-14.3c-12.6-0.8-28.4-1.2-46.6-1.6c-66.1-1.4-166.1-3.6-250.2-34.5
	c-204.5-75.1-433.3-69.9-650.8,13.5 M-29.3,1214.5c160.1-12.9,337.2,9.1,392.5,16.9c39.4,5.6,118.7,21.2,202.7,37.7
	c119.5,23.5,255,50.1,321.4,57.2c32.3,3.5,65.5,8.6,97.6,13.7c26.5,4.1,53.8,8.4,79.8,11.5c158.7,19.2,309.6,18.7,448.7-1.3
	c173-24.9,348.3-67.5,499.6-164.4c107.7-69,205.8-102,490.8-41.3c0,0,11.5,2.9,15.4,2.9c38.8,0.6,66.5-6.6,90.6-16.6 M-29.3,585.2
	c32.2-7.2,66-12.9,101.3-16.9c105.7-12.1,197.6-8.3,307.4,12.7c67.8,13,137.9,33.5,205.6,53.3c46.5,13.6,94.5,27.7,142,39.4
	l26.3,6.6c16.2,4.1,32.9,8.4,49.4,12.1c183.9,41.6,368.6,101.1,540.3,98c182.1-3.4,355.9-72.4,525.4-126.1
	c44.1-14,90.1-25.3,137.1-49.1c66.2-33.5,148.7-99.1,283.8-80.1c194.3,27.4,286.4,10.1,332.4-4.9c18.4-6,29.4-11.7,36.6-14
	 M-29.3,1250.1c13.5-1.7,26.5-2.9,38.8-3.3c148.2-5.4,281.5,20.9,388.6,42c44.5,8.8,82.9,16.3,116.1,20.5
	c34.5,4.3,67.4,10.4,102.3,16.9l6.8,1.3c190.8,35.4,354.7,55.1,515.9,61.9c0,0,113.6,1.9,113.6,1.9
	c264.5-4.1,525.6-56.2,766.9-142.5c162.7-58.2,341-67.9,509.9-41.9c24.5,3.8,46.9,5.3,67.5,5.1 M-29.3,2362.4
	c81.5-1.3,130.6,12.6,185.9,28.2c60.1,17,128.2,36.3,254.5,43.2c173.9,9.6,309.1-32.4,398.6-60.1l28-8.6
	c80.1-24.1,257.4-63.3,324-49.6c222,45.8,297.7,20.8,358.5,0.8c40.2-13.2,74.9-24.7,140.4-13.3c24.9,4.3,50.2,9.3,74.7,14.1
	c41.7,8.2,84.8,16.6,127.5,22.2l82.3,11.2l60.4,8.2c0,0,168.8,15,320.5-11c82.3-14.1,149.2,8.5,179.2,22.6c0,0,38.2,12.6,103.2,11.6
	 M-29.3,2300.1c146.5,53.3,263.5,83.7,373.5,97.3c41.5,5.1,83.5,7.3,118.2,6c58.8-2.1,121.3-10.3,176.1-23.3
	c37.2-8.8,75.7-18.7,112.9-28.2c113.8-29.2,231.4-59.3,348.5-69.6l60.7-6c55.7-5.7,125.1-12.9,164.5-13.5
	c219.1,0.1,393.3,20.1,595,43.2c0,0,64.2,7.1,85.5,9.7c57,6.8,93.8,11.9,229.5-7.6s267.6,19.5,267.6,19.5s44.5,12.1,107.2,11.5
	 M2609.8,2291.6c-34.5-0.1-66.2-4.1-96.3-9.6c-125.4-23.1-165-47.2-508-35.6c-118.6,11.3-234.4,5.1-333.5-2.8l-47.3-3.8
	c-122.5-10-246.7-15.9-402.7-19.1c-220.2-4.5-540,67.9-589.7,81.5c-197.5,53.7-471.1,18.9-661.6-30.8 M2609.8,2212.2
	c-29.1-0.9-56.3-4.1-82.5-7.9c-191.4-28.1-152-102.1-515.4-35.6c-272.9,32.2-657.3-48.4-815.5-51.7
	c-223.4-4.5-527.4,93.8-577.8,107.3c-200.4,53.7-478,18.9-671.3-30.8 M-29.3,2381.8c61.1,7.5,123.1,21.6,187.3,36.3
	c102.4,23.4,208.3,47.7,316,43.7c169.1-6.2,322.4-56,396.1-80c19.3-6.3,33.2-10.8,41.5-12.7c103.3-23.8,198.7-27.4,300.3-11.4
	c48.6,7.6,82.5,22,112.3,34.7c41.5,17.6,77.4,32.8,138.6,23.8c22.2-3.3,47.6-9.6,77.1-16.9c103-25.6,252.9-46.3,465.6-12.5
	c74.8,11.9,142.7-7.4,300.6,3.1c93.9,6.3,154.2,33.3,195.9,42.7c49.1,11.1,63.7,15.6,107.8,12.6c18-1.2,40.9-3.7,73.1-7.4
	 M-29.3,2432.1c61.1,7.5,123.1,21.6,187.3,36.3c102.4,23.4,208.3,47.7,316,43.7c169.1-6.2,322.4-56,396.1-80
	c19.3-6.3,33.2-10.8,41.5-12.7c103.3-23.8,198.7-27.4,300.3-11.4c48.6,7.6,82.5,22,112.3,34.7c41.5,17.6,75.1,22.6,136.3,13.6
	c22.2-3.3,47.6-9.6,77.1-16.9c103-25.6,252.1-40.1,465.6-12.5c65.7,8.5,158.9,3.6,214.5-5.7c106.3-17.7,179,73.9,286.1,68
	c29.2-1.6,65.6,1,105.9,1.4 M2609.8,2026.4c-38.5-9.7-69.9-24.3-98.8-32.9c-201.3-60.4-294.8-36.3-405.4-12.7
	c-43.9,9.4-94,13.9-179.1,3.3c-6-0.7-24.2-0.9-24.2-0.9c-68.2-3.5-140.9-10.8-211.1-17.8c-35.5-3.5-72.3-7.2-107.9-10.3
	c-26.9-2.4-54.6-5.2-81.5-7.9c-61-6.2-124.1-12.6-183.5-14.3l-30.5-0.3l-26.5-0.2l-10.8-0.2c-180.3-3.8-350.5-7.5-526.9,47
	c-106.4,32.8-245.3,72.4-376.8,86.7c-131.2,14.4-260.7-4.3-376-26.9 M2704.3,2116.5c-35.7,5.9-66.8,5.8-94.5,2.3
	c-58-7.2-101-28.9-139.6-40.3c-204.6-60.4-299.6-36.3-412-12.7c-44.6,9.4-95.5,13.9-182,3.3c-6.1-0.7-24.6-0.9-24.6-0.9
	c-69.3-3.5-143.1-10.8-214.5-17.8c-36.1-3.5-73.5-7.2-109.6-10.3c-27.3-2.4-55.5-5.2-82.8-7.9c-62-6.2-126.1-12.6-186.5-14.3
	l-31-0.3l-26.9-0.2l-11-0.2c-183.2-3.8-356.2-7.5-535.4,47c-108.1,32.8-249.3,72.4-382.9,86.7c-133.3,14.4-264.9-4.3-382.1-26.9
	 M-29.3,427.6c234.3-51.4,564.7-4.9,790.2,55l24.7,6.4c14.1,3.6,28.8,7.3,42.9,11.4c44.9,13.1,92.2,31.4,137.9,49.1l2.6,1
	c60.5,23.4,125,45,191.6,64.3c125.8,36.4,258.6,48,384.3,33.6c70.4-8.1,143.9-25,201.6-46.5c51.2-19.1,97.8-46.8,142.8-73.6
	c37.1-22.1,76.8-41.2,116.3-62.9c82.8-45.6,271-141,385.7-120.1c58.3,10.6,55.7,13.2,112.6,23c38.2,6.6,73.4,9.4,105.9,9.4
	 M2613.9,342.3c-38.4,2.7-73,1.4-100.4-6.1c-296-80.7-498.6,60.7-498.6,60.7c-45.9,18-91,43.1-134.8,67.5
	c-25.1,14-48.8,27.2-72.5,39.1c-14.9,7.5-29,15.3-42.7,22.9c-12.8,7.1-24.9,13.8-37.4,20.1c-103.9,52.6-230.9,52.9-359,50.1
	c-112-2.4-229.9-26-350.4-70c-120.3-44-248.9-89.9-380.8-126.2l-4.2-1.3c-112.3-31-217.1-46.5-311.4-46.2
	c-29.4,0.1-59.5,2.4-88.6,4.6l-8.9,0.7c-77.6,5.9-165.3,14.5-253.6,40.5 M-29.3,356.4c82.6-14.9,164-19.4,252.2-22.9
	c98.4-4,200.4,3.3,311.7,22.2l32.1,5.3c35.9,5.8,73,11.9,103.6,19.7c121,31.2,244,75.5,363,118.3l77,27.6
	c124.3,44.1,224.6,59.4,315.6,48c86.3-10.8,172.1-39.9,272.2-89.9l13.2-6.6c107.2-53.6,201-100.8,300.6-133.8
	c116.9-38.7,253-74.9,496.6-28.9c35.1,6.6,66.7,9.6,101.3,8.5 M-41.9,1145.1c299.7-107.3,759.7,108.5,1292.5,152.9
	c532.7,44.4,710.1-207,843.3-232.9c60.9-11.8,284.3,32.2,444-11.1c22.2-6,46.1-10.6,71.4-13.9 M-41.9,1066.2
	c463.7-167.7,670.9,81.4,1203.7,125.8c532.7,44.4,730.1-155.4,932.4-219.5c158.6-50.3,281.2,78.9,443.7,2.6
	c20.8-9.8,43.7-17.2,68.2-22.5 M-51.9,945.5c299.7-107.3,769.7,125.6,1302.5,170c532.7,44.4,588.3-227.1,835.9-262.5
	c103.6-14.8,251.6,103.6,451.4,18.5c20.7-8.8,44.9-14.9,71.9-18.6 M-32,632.1c350.2-148,592,177.6,1095.1,236.8
	c503.2,59.2,966.9-271.3,1144.5-276.3c154.3-4.3,245.3,28.7,418.5-14.4c26.2-6.5,54.3-14.7,84.7-25.1 M-32,708.7
	c350.2-148,594.8,157.1,1095.1,236.8c634.9,101.1,757-209.7,1082.6-272.6c158.3-30.6,170.2,96.9,466.2,2.8
	c30.2-9.6,63.3-21.5,99.9-36.1 M-38,814.8c350.2-148,589.7,127.5,1090,207.2C1687,1123.1,1814.2,842,2139.7,779.1
	c161.7-31.2,170.7,102.4,485.5-3.5c24.9-8.4,51.7-18.2,80.6-29.8"/>
</svg>
