<?xml version="1.0" encoding="utf-8"?>
<!-- Generator: Adobe Illustrator 19.1.0, SVG Export Plug-In . SVG Version: 6.00 Build 0)  -->
<svg version="1.1" id="Layer_1" xmlns="http://www.w3.org/2000/svg" xmlns:xlink="http://www.w3.org/1999/xlink" x="0px" y="0px"
	 viewBox="0 -289 2560 2097.9" style="enable-background:new 0 -289 2560 2097.9;" xml:space="preserve">
<style type="text/css">
	.st0{fill:none;stroke:#f2f2f2;stroke-width:2;stroke-miterlimit:10;}
</style>
<path class="st0" d="M-26.6-138.8c68.9,10.3,127.3,13.7,183.8,10.9l60.4-1.9c37.1-1.9,78.6-8.9,117.3-20
	c18.3-5.2,37.6-14.1,58.1-23.5c14.7-6.8,30-13.8,45.3-19.6l3.5-1.2C589-252.5,734.3-239.8,888-226.1c78.8,7,160.3,14.1,242.5,11
	c172.9-6.7,276.3,4,351.7,11.8c58.8,6.1,105.3,10.8,158.7,5.1c20.1-2.2,48-7.5,77.5-12.9c35-6.6,71.2-13.4,95.7-15.2
	c0,0,160.6-22.4,335.6,47.5c118.5,47.2,295,37.3,363.9,0c17.6-9.5,32.7-20.2,47.5-30.7"/>
<path class="st0" d="M1944.8-204.8c-57.3-4.1-143.9,6.3-192.6,16.4c-20.7,4.3-55.9,13.3-59.7,25.8c-0.6,2-0.7,5,2.1,8
	c8.6,9.6,41.1,16.4,72.5,22.8c17.4,3.6,33.7,7.1,41.3,10.2c21.6,9,40.9,14.3,62.4,17c0.1,0,0.2,0,0.3,0l0,0l0,0h8h12.1
	c22.7-1.1,51.8,2.8,76.8-9.9C1986.8-124.1,2153.7-189.7,1944.8-204.8z"/>
<path class="st0" d="M-26.6-65.7C65-48.4,165.6-34.1,268.6-34.1c28.2,0,56.7-1.1,85-3.4c52.3-4.4,102.9-13.6,156.7-23.4
	c23-4.2,47-8.5,70.7-12.5l92-15.3c189.5-31.7,385.2-64.4,573.8-64.4c6.5,0,13,0,19.5,0.1c81.8,2.3,160.5,11.2,233.8,26.6l43.7,9.3
	c119.8,25.7,282.5,63.3,394.2,69.5c90.1,4.9,200.1-18.9,200.1-18.9c56.4-16.1,220.9-12.1,321.1-1.1c31.6,3.4,67.7,3,106.2-0.8"/>
<path class="st0" d="M2563.1-100c-21.4,1-155,0.8-189.8-2.5c-198.3-19.1-245-15.3-335.8,12.5c-81.5,25-217.3,6.8-310.4-25.2
	c-19.6-6.8-80.5-19.3-80.5-19.3C1529-163,1405.6-181,1292.5-190.1c-44.7-3.5-90.3-4.2-139.3-1.9c-71.7,3.3-141.8,16.7-216,30.7
	l-17.3,3.2c-244.4,46.1-425.2,71.1-552.5,76.3l-21.8,0.9C222.9-75.7,96.5-70.5-26.6-85.3"/>
<path class="st0" d="M1968.3-175.2c-9.6-4.8-22.4-7.1-30.7-8c-24.2-2.9-98.9,12.4-108.4,16.1c-2,0.8-4.9,1.4-8.1,2
	c-7.9,1.6-15.5,3.1-17.1,8.2c-0.8,2.5,0.1,5.2,2.6,8.1c11.1,12.6,43.6,17.2,50,17.9c8.9,1.1,18.6,1.3,27.9,1.5
	c7.5,0.2,15.3,0.3,22.7,1c0,0,3.4,0.3,4.9,0c1.2-0.3,2.4-0.3,3.6-0.3c0.5,0,1.1,0,1.7,0h2.9c10.9-0.1,34.9-2.3,47.9-13.4
	C1974.2-147.5,1986.3-163,1968.3-175.2z"/>
<path class="st0" d="M1601.4,160.6c30.5-16,69.7-46.2,79.7-78.9c3.8-12.5,3-24.4-2.4-35.3c-22.1-44.3-111.4-64.5-129-68.1
	c-16.8-3.4-34.8-5.7-52.3-7.9c-12.3-1.6-23.9-3-35.1-4.9c-53.8-8.8-103.6-15.7-167.3-9.9c-13.1,1.2-46.9,5.2-77.3,16.3
	c-24.1,8.7-45.6,24.5-66.4,39.8c-13.1,9.6-26.8,19.6-40.8,27.6c-14.9,8.5-29.5,11.7-45,15.1c-8.5,1.9-17.3,3.7-26.5,6.7
	c-17.2,5.4-27.6,12.8-31.1,22.1c-2.4,6.2-1.4,13,2.6,20.3c10.1,18,31.7,30.8,51.5,41c37.7,19.3,80,29.9,120.1,39.1
	c30.8,7.1,72.4,9.1,109.1,10.9l4.7,0.2c40,2,85.6,3.1,139.5,3.7c0,0,0.1,0,0.2,0C1494.2,194.4,1547,189.1,1601.4,160.6"/>
<path class="st0" d="M1289.3,87.7c27.1,3.1,116.7,1,126.1-7.1c2.1-1.7,3-3.6,2.9-5.6c-0.1-2.3-1.5-4.2-4.2-6.2
	c-17.6-12.5-50.5-17.1-73.2-17.2l-6.5,0.2l-4.3,0.1c-0.1,0-0.2,0-0.3,0c-11.6,1.4-22,3.6-33.5,7.4c-11.8,3.8-22.9,7.6-30,13.4
	c-1.7,1.4-3.4,3-3.3,5.4c0.1,2.3,2,3.6,3.5,4.6c4.8,2.9,12.5,3.8,19.9,4.6L1289.3,87.7z"/>
<path class="st0" d="M-4.6,176.2c234.5-61.5,472-28.5,656.8,8.6c60.1,12.1,120.7,28,180.2,47.5c34.8,11.4,71.4,22.9,106.8,34.1
	c37,11.7,71.9,22.7,104.5,33.5c90,29.6,188.3,51.4,284.4,62.9c19.7,2.4,40.1,3.6,59.9,4.9c14,0.9,28.5,1.8,42.7,3
	c57.1,5.2,110.6,4.8,159.1-1c139.6-16.8,267.3-74.3,400.5-137.8c0,0,203.2-117.9,297.5-103.8c72.3,10.8,157.8,5.4,194,8.2
	c35.9,2.8,75.7,1.3,118-3"/>
<path class="st0" d="M-4.6,265.6c90-20.8,174.3-31.1,261.1-32.1c48.2-0.6,98,2.9,131.2,5.7c39.6,3.2,92.2,8.3,147.2,19.2
	c92.2,18.3,184.8,41.8,274.4,64.3c112.7,28.5,229.4,57.9,343.1,76.6c218,35.7,425.1,23.5,615.3-36.2c77.1-24.2,150-55.1,222.6-92.8
	c79-41,232.2-112.8,339.9-97.5c47.4,6.8,103.4,20.6,148.7,18.8c29.2-1.1,72.4-5.7,123.1-11.7"/>
<path class="st0" d="M1407.9,174.6c58.3-5.2,101.6-13.6,136.2-26.6c28.9-10.9,74-43.9,79.6-75.4c2.4-12.8-1.9-24.3-12.4-33.9
	c-11.4-10.5-29-15.4-36.1-17.1l-36.5-8.7c-45.7-11-88.8-21.4-130.6-27.5c-86.3-12.5-150.2-0.3-220.6,42.3
	c-12.2,7.4-26.6,16.3-41.7,26.7l-3.8,2.6c-18.2,12.5-43.2,29.7-45.3,49.2c-0.8,7.7,2.1,15.1,8.4,22c27.2,29.1,103.4,39.5,128.5,42.9
	c30.9,4.2,64.1,5.6,96.3,5.6C1357.7,176.8,1384.3,175.8,1407.9,174.6C1407.8,174.6,1407.9,174.6,1407.9,174.6"/>
<path class="st0" d="M2582.4-1.1c-31,2.5-65.4,3.7-103.8,3.2c-58.9-0.8-166.5-47.1-269.4-27c-141,27.5-163.3,41.4-218.9,47.4
	c-132,14.2-259.9-44.4-383-74.1c-43.2-10.5-87.8-21.3-132.2-30.8c-88.9-19.1-171.8-17.7-285.9,4.7c-49,9.6-98.8,22.4-147,34.6
	c-36.7,9.4-74.7,19-112,27.3c-100.4,22.2-199.3,36.4-294,42.3c-74.9,4.6-148.1-0.1-225.7-5l-50.9-3.1l-48.2-2.7
	C243.2,11.6,172.7,7.6,103.2,3L86.5,1.9C56.4,0,25.7-1.9-4.6-6.3"/>
<path class="st0" d="M1800.4,72.6c1.5-6.7-3.2-14.2-12.5-26c-32.2-40.4-231.4-91.4-260.8-96.7c-38.9-7.1-168.4-18.5-242.8-20.1
	c-81.6,4-154.7,25.4-252.4,73.9c-56.6,28-117.7,39.4-166.8,48.5c-25,4.6-46.6,8.6-61.6,13.9c-1.4,0.5-5.7,2-5.7,5.7
	c0,6.4,12.9,11.4,50.4,24.9c29.1,10.5,69,24.9,107.7,43.9c107.4,52.7,181,82.7,218.5,89c56.5,9.5,115.7,12,144.2,13.1l12.5,0.6
	c14.1,0.9,28.5,1.3,43.2,1.3c18.2,0,37-0.7,55.8-2.1l0,0c30.8-2.7,76.2-8.3,114.9-25.1c36.2-15.7,77.8-44,114.5-68.9
	c13-8.9,25.4-17.3,36.3-24.2c13.8-8.8,32.6-15.7,50.8-22.4c11-4,21.3-7.7,30.6-12C1791.4,83.9,1798.8,79.4,1800.4,72.6"/>
<path class="st0" d="M1240.3,143.9c52.6,5.4,101.9,8.3,150.4,8.9c27.7,0.4,159.9-16.1,185-43.1c11.4-12.4,11.4-25.8-0.1-37.8
	c-18.1-19.1-47.5-34.4-68.9-43.8c-35.5-15.6-76.9-25.2-119.7-27.6c-66.5-3.8-112.7,6.7-176.7,40.1c-25.9,13.5-58.1,30.5-74.5,53.2
	c-4,5.6-5.5,10.8-4.4,15.6c1.3,5.7,5.9,10.5,14.6,15c24,12.5,57.9,16,87.8,18.9L1240.3,143.9"/>
<path class="st0" d="M1379.9,126.2l1.5,0.3c0.1,0,0.2,0,0.4,0s0.4,0,0.6-0.1c1.9-0.5,3.8-0.6,5.8-0.6c0.9,0,1.7,0,2.5,0h4.6
	c29.2-0.2,88.4-18.3,92.9-50.9c0.6-4.4-1-10.2-4-14.8c-11.7-17.5-43.9-24.3-62.2-26.9l-13.1-2c-35.3-5.3-79.2-11.9-111.8,2.5
	c-6.3,2.7-13,7.7-20.1,12.9c-7.6,5.6-15.5,11.4-23.3,14.9c-3,1.4-7.7,2.5-12.7,3.6c-11.2,2.5-22.8,5.2-25.3,12.8
	c-1.3,3.7,0,7.9,3.5,12.6c16.9,22,67.2,29.9,77.2,31.3c13.9,2,28.9,2.3,43.4,2.6c11.7,0.3,23.8,0.6,35.5,1.7c0.1,0,0.2,0,0.3,0
	c0.1,0,0.2,0,0.3,0l1.5-0.4L1379.9,126.2z"/>
<path class="st0" d="M2582-42.7c-34.7,5.4-67.3,6.2-98.6,0.6c-78.7-14-261.2-11.8-320.2,4.5c-60.5,16.6-128.9,34-173,37.2
	c-74,5.3-152.1-16.5-228.8-39.6l-55.8-17.5c-24.2-7.7-47.1-15.1-72-22.2c-95.9-27.3-200.5-41.4-294.5-39.7
	c-109.9,2-217.6,22.1-331.6,43.2l-85.3,15.6C744.7-29.4,561,2.9,374.9,2.1c-32.6-0.1-66.1-1.8-98.4-3.3l-49.5-2.3
	C149.4-6.4,71.7-17.8-4.6-37.3"/>
<path class="st0" d="M-4.6,902.7c157-12.6,330.6,8.9,384.8,16.6c38.6,5.5,116.4,20.8,198.7,37c117.2,23,250,49.1,315.1,56.1
	c31.7,3.4,64.2,8.4,95.7,13.4c26,4,52.7,8.2,78.2,11.3c155.6,18.8,303.5,18.3,439.9-1.3c169.6-24.4,341.5-66.2,489.8-161.2
	c105.6-67.6,201.8-100,481.2-40.5c0,0,11.3,2.8,15.1,2.8c38,0.6,65.2-6.5,88.8-16.3"/>
<path class="st0" d="M-4.6,285.7c31.6-7.1,64.7-12.6,99.3-16.6c103.6-11.9,193.7-8.1,301.4,12.5c66.5,12.7,135.2,32.8,201.6,52.3
	c45.6,13.3,92.6,27.2,139.2,38.6l25.8,6.5c15.9,4,32.3,8.2,48.4,11.9c180.3,40.8,361.4,99.1,529.7,96.1
	c178.5-3.3,348.9-71,515.1-123.6c43.2-13.7,88.3-24.8,134.4-48.1c64.9-32.8,145.8-97.2,278.2-78.5c190.5,26.9,280.8,9.9,325.9-4.8
	c18-5.9,28.8-11.5,35.9-13.7"/>
<path class="st0" d="M-4.6,937.6c13.2-1.7,26-2.8,38-3.2c145.3-5.3,276,20.5,381,41.2c43.6,8.6,81.3,16,113.8,20.1
	c33.8,4.2,66.1,10.2,100.3,16.6l6.7,1.3c187.1,34.7,347.7,54,505.8,60.7l111.4,1.9c259.3-4,515.3-55.1,751.8-139.7
	c159.5-57.1,334.3-66.6,499.9-41.1c24,3.7,46,5.2,66.2,5"/>
<path class="st0" d="M-4.6,131.2C225.1,80.8,549,126.4,770,185.1l24.2,6.3c13.8,3.5,28.2,7.2,42.1,11.2
	c44,12.8,90.4,30.8,135.2,48.1l2.5,1c59.3,22.9,122.5,44.1,187.8,63c123.3,35.7,253.5,47.1,376.8,32.9c69-7.9,141.1-24.5,197.6-45.6
	c50.2-18.7,95.9-45.9,140-72.2c36.4-21.7,75.3-40.4,114-61.7C2071.5,123.6,2256,30,2368.4,50.5c57.2,10.4,54.6,12.9,110.4,22.5
	c37.5,6.5,72,9.2,103.8,9.2"/>
<path class="st0" d="M2586.7,47.6c-37.6,2.6-71.6,1.4-98.4-6c-290.2-79.1-488.8,59.5-488.8,59.5c-45,17.6-89.2,42.3-132.2,66.2
	c-24.6,13.7-47.8,26.7-71.1,38.3c-14.6,7.4-28.4,15-41.9,22.5c-12.5,7-24.4,13.5-36.7,19.7c-101.9,51.6-226.4,51.9-352,49.1
	c-109.8-2.4-225.4-25.5-343.5-68.6c-117.9-43.1-244-88.1-373.3-123.7l-4.1-1.3C534.7,72.9,431.9,57.7,339.5,58
	c-28.8,0.1-58.3,2.4-86.9,4.5l-8.7,0.7C167.8,69,81.8,77.4-4.7,102.9"/>
<path class="st0" d="M-4.6,61.4c81-14.6,160.8-19,247.2-22.5c96.5-3.9,196.5,3.2,305.6,21.8l31.5,5.2c35.2,5.7,71.6,11.7,101.6,19.3
	c118.6,30.6,239.2,74,355.9,116l75.5,27.1c121.9,43.2,220.2,58.2,309.4,47.1c84.6-10.6,168.7-39.1,266.9-88.1l12.9-6.5
	c105.1-52.5,197.1-98.8,294.7-131.2c114.6-37.9,248-73.4,486.9-28.3c34.4,6.5,65.4,9.4,99.3,8.3"/>
<path class="st0" d="M-17,834.6C276.8,729.4,727.8,941,1250.1,984.5c522.2,43.5,696.2-202.9,826.7-228.3
	c59.7-11.6,278.7,31.6,435.3-10.9c21.8-5.9,45.2-10.4,70-13.6"/>
<path class="st0" d="M-17,757.3c454.6-164.4,657.7,79.8,1180.1,123.3c522.2,43.5,715.8-152.3,914.1-215.2
	c155.5-49.3,275.7,77.4,435,2.5c20.4-9.6,42.8-16.9,66.9-22.1"/>
<path class="st0" d="M-26.8,639C267,533.8,727.8,762.1,1250.1,805.6c522.2,43.5,576.8-222.6,819.5-257.3
	c101.6-14.5,246.7,101.6,442.5,18.1c20.3-8.6,44-14.6,70.5-18.2"/>
<path class="st0" d="M-7.3,331.7C336,186.6,573.1,505.8,1066.3,563.9c493.3,58,947.9-266,1122-270.9
	c151.3-4.2,240.5,28.1,410.3-14.1c25.7-6.4,53.2-14.4,83-24.6"/>
<path class="st0" d="M-7.3,406.8C336,261.7,575.8,560.8,1066.3,639c622.4,99.1,742.1-205.6,1061.4-267.2c155.2-30,166.9,95,457,2.7
	c29.6-9.4,62.1-21.1,97.9-35.4"/>
<path class="st0" d="M-13.2,510.8c343.3-145.1,578.1,125,1068.6,203.1c622.5,99.1,747.2-176.5,1066.4-238.1
	c158.5-30.6,167.3,100.4,476-3.4c24.4-8.2,50.7-17.8,79-29.2"/>
</svg>
