<?xml version="1.0" encoding="utf-8"?>
<!-- Generator: Adobe Illustrator 19.1.0, SVG Export Plug-In . SVG Version: 6.00 Build 0)  -->
<svg version="1.1" id="Layer_1" xmlns="http://www.w3.org/2000/svg" xmlns:xlink="http://www.w3.org/1999/xlink" x="0px" y="0px"
	 viewBox="0 664.9 2560 254" style="enable-background:new 0 664.9 2560 254;" xml:space="preserve">
<style type="text/css">
	.st0{fill:none;stroke:#f2f2f2;stroke-width:2;stroke-miterlimit:10;}
</style>
<path class="st0" d="M-69,765c68.6,1.1,110-10.6,156.6-23.8c50.6-14.3,108-30.5,214.3-36.4c146.4-8.1,260.3,27.3,335.7,50.7
	l23.6,7.2C728.7,783,878,816,934.1,804.5c187-38.6,250.7-17.5,302-0.6c33.8,11.2,63.1,20.8,118.3,11.2c20.9-3.6,42.3-7.8,62.9-11.9
	c35.1-6.9,71.4-14,107.4-18.7l69.3-9.4l50.9-6.9c0,0,142.2-12.7,270,9.2c69.3,11.9,125.6-7.1,151-19c0,0,128.6-42.6,309.4,49.5
	c180.7,92.1,406,47.7,520.3-2.8"/>
<path class="st0" d="M-69,817.5c123.4-44.9,221.9-70.5,314.6-81.9c34.9-4.3,70.3-6.1,99.5-5.1c49.5,1.7,102.2,8.7,148.3,19.6
	c31.4,7.4,63.8,15.7,95.1,23.8c95.8,24.6,194.9,49.9,293.5,58.6l51.1,5c47,4.8,105.4,10.8,138.6,11.4
	c184.5-0.1,331.2-16.9,501.2-36.4c0,0,54-6,72-8.2c48-5.8,79-10,193.3,6.4s225.4-16.4,225.4-16.4s113-30.9,223.1,17.4
	c110.1,48.2,344.9,166.6,554.7,43.8"/>
<path class="st0" d="M-69,748.7c51.5-6.3,103.7-18.2,157.7-30.6c86.3-19.7,175.5-40.2,266.2-36.8c142.4,5.2,271.6,47.2,333.7,67.4
	c16.2,5.3,27.9,9.1,35,10.7c87,20,167.3,23.1,252.9,9.6c40.9-6.4,69.5-18.5,94.6-29.2c35-14.8,65.2-27.7,116.7-20.1
	c18.7,2.8,40.1,8.1,64.9,14.3c86.8,21.6,213,39,392.2,10.5c63-10,120.2,6.3,253.2-2.6c79.1-5.3,129.9-28,165-36
	c58.2-13.2,58.9-15.3,152.4-4.4s258.3,138.8,380.9,125.7c75.8-8.1,263.8-131.5,440.4-116.2"/>
</svg>
